<svg width="48" height="48" viewBox="0 0 48 48" fill="none" xmlns="http://www.w3.org/2000/svg">
<path d="M28.4001 35C28.4001 41.0751 26.4302 46 24.0001 46C21.57 46 19.6001 41.0751 19.6001 35C19.6001 28.9249 24.0001 24 24.0001 24C24.0001 24 28.4001 28.9249 28.4001 35Z" fill="url(#paint0_linear_657_3233)"/>
<path d="M28.4001 13C28.4001 6.92487 26.4302 2 24.0001 2C21.57 2 19.6001 6.92487 19.6001 13C19.6001 19.0751 24.0001 24 24.0001 24C24.0001 24 28.4001 19.0751 28.4001 13Z" fill="url(#paint1_linear_657_3233)"/>
<path d="M13 19.5994C6.92487 19.5994 2 21.5694 2 23.9994C2 26.4295 6.92487 28.3994 13 28.3994C19.0751 28.3994 24 23.9994 24 23.9994C24 23.9994 19.0751 19.5994 13 19.5994Z" fill="url(#paint2_linear_657_3233)"/>
<path d="M35 28.4001C41.0751 28.4001 46 26.4301 46 24.0001C46 21.57 41.0751 19.6001 35 19.6001C28.9249 19.6001 24 24.0001 24 24.0001C24 24.0001 28.9249 28.4001 35 28.4001Z" fill="url(#paint3_linear_657_3233)"/>
<path d="M19.3335 34.8899C15.0378 39.1856 10.1624 41.2751 8.44408 39.5568C6.72577 37.8385 8.81522 32.9631 13.111 28.6673C17.4068 24.3716 24.0004 24.0004 24.0004 24.0004C24.0004 24.0004 23.6293 30.5941 19.3335 34.8899Z" fill="url(#paint4_linear_657_3233)"/>
<path d="M34.8899 19.3335C39.1856 15.0378 41.2751 10.1624 39.5568 8.44408C37.8385 6.72577 32.9631 8.81522 28.6673 13.111C24.3716 17.4068 24.0004 24.0004 24.0004 24.0004C24.0004 24.0004 30.5941 23.6293 34.8899 19.3335Z" fill="url(#paint5_linear_657_3233)"/>
<path d="M19.3335 13.1096C15.0378 8.81387 10.1624 6.72443 8.44408 8.44273C6.72577 10.161 8.81522 15.0364 13.111 19.3322C17.4068 23.6279 24.0004 23.9991 24.0004 23.9991C24.0004 23.9991 23.6293 17.4054 19.3335 13.1096Z" fill="url(#paint6_linear_657_3233)"/>
<path d="M28.666 34.8899C32.9618 39.1856 37.8371 41.2751 39.5554 39.5568C41.2737 37.8385 39.1843 32.9631 34.8885 28.6673C30.5928 24.3716 23.9991 24.0004 23.9991 24.0004C23.9991 24.0004 24.3702 30.5941 28.666 34.8899Z" fill="url(#paint7_linear_657_3233)"/>
<g filter="url(#filter0_f_657_3233)">
<circle cx="24.0007" cy="24.0007" r="5.28" fill="#FFFE59"/>
</g>
<g filter="url(#filter1_f_657_3233)">
<circle cx="24.0001" cy="24.0001" r="4.4" fill="#FFFE59"/>
</g>
<g filter="url(#filter2_f_657_3233)">
<circle cx="24.0001" cy="24.0001" r="4.4" fill="#FFFE59"/>
</g>
<defs>
<filter id="filter0_f_657_3233" x="16.2763" y="16.2763" width="15.4489" height="15.4489" filterUnits="userSpaceOnUse" color-interpolation-filters="sRGB">
<feFlood flood-opacity="0" result="BackgroundImageFix"/>
<feBlend mode="normal" in="SourceGraphic" in2="BackgroundImageFix" result="shape"/>
<feGaussianBlur stdDeviation="1.22222" result="effect1_foregroundBlur_657_3233"/>
</filter>
<filter id="filter1_f_657_3233" x="18.3779" y="18.3779" width="11.2442" height="11.2442" filterUnits="userSpaceOnUse" color-interpolation-filters="sRGB">
<feFlood flood-opacity="0" result="BackgroundImageFix"/>
<feBlend mode="normal" in="SourceGraphic" in2="BackgroundImageFix" result="shape"/>
<feGaussianBlur stdDeviation="0.611111" result="effect1_foregroundBlur_657_3233"/>
</filter>
<filter id="filter2_f_657_3233" x="19.3557" y="19.3557" width="9.28869" height="9.28869" filterUnits="userSpaceOnUse" color-interpolation-filters="sRGB">
<feFlood flood-opacity="0" result="BackgroundImageFix"/>
<feBlend mode="normal" in="SourceGraphic" in2="BackgroundImageFix" result="shape"/>
<feGaussianBlur stdDeviation="0.122222" result="effect1_foregroundBlur_657_3233"/>
</filter>
<linearGradient id="paint0_linear_657_3233" x1="24.0001" y1="24" x2="24.0001" y2="46" gradientUnits="userSpaceOnUse">
<stop stop-color="#FE5FB1"/>
<stop offset="0.485577" stop-color="#E257FF"/>
</linearGradient>
<linearGradient id="paint1_linear_657_3233" x1="24.0001" y1="24" x2="24.0001" y2="2" gradientUnits="userSpaceOnUse">
<stop stop-color="#FE5FB1"/>
<stop offset="0.485577" stop-color="#E257FF"/>
</linearGradient>
<linearGradient id="paint2_linear_657_3233" x1="24" y1="23.9994" x2="2" y2="23.9994" gradientUnits="userSpaceOnUse">
<stop stop-color="#FE5FB1"/>
<stop offset="0.485577" stop-color="#E257FF"/>
</linearGradient>
<linearGradient id="paint3_linear_657_3233" x1="24" y1="24.0001" x2="46" y2="24.0001" gradientUnits="userSpaceOnUse">
<stop stop-color="#FE5FB1"/>
<stop offset="0.485577" stop-color="#E257FF"/>
</linearGradient>
<linearGradient id="paint4_linear_657_3233" x1="24.0004" y1="24.0004" x2="8.44408" y2="39.5568" gradientUnits="userSpaceOnUse">
<stop stop-color="#FE5FB1"/>
<stop offset="0.485577" stop-color="#E257FF"/>
</linearGradient>
<linearGradient id="paint5_linear_657_3233" x1="24.0004" y1="24.0004" x2="39.5568" y2="8.44408" gradientUnits="userSpaceOnUse">
<stop stop-color="#FE5FB1"/>
<stop offset="0.485577" stop-color="#E257FF"/>
</linearGradient>
<linearGradient id="paint6_linear_657_3233" x1="24.0004" y1="23.9991" x2="8.44408" y2="8.44273" gradientUnits="userSpaceOnUse">
<stop stop-color="#FE5FB1"/>
<stop offset="0.485577" stop-color="#E257FF"/>
</linearGradient>
<linearGradient id="paint7_linear_657_3233" x1="23.9991" y1="24.0004" x2="39.5554" y2="39.5568" gradientUnits="userSpaceOnUse">
<stop stop-color="#FE5FB1"/>
<stop offset="0.485577" stop-color="#E257FF"/>
</linearGradient>
</defs>
</svg>
